<?xml version="1.0" encoding="utf-8" standalone="no"?>
<!DOCTYPE svg PUBLIC "-//W3C//DTD SVG 1.1//EN"
  "http://www.w3.org/Graphics/SVG/1.1/DTD/svg11.dtd">
<svg xmlns:xlink="http://www.w3.org/1999/xlink" width="511.2pt" height="266.4pt" viewBox="0 0 511.2 266.4" xmlns="http://www.w3.org/2000/svg" version="1.1">
 <metadata>
  <rdf:RDF xmlns:dc="http://purl.org/dc/elements/1.1/" xmlns:cc="http://creativecommons.org/ns#" xmlns:rdf="http://www.w3.org/1999/02/22-rdf-syntax-ns#">
   <cc:Work>
    <dc:type rdf:resource="http://purl.org/dc/dcmitype/StillImage"/>
    <dc:date>2026-10-04T18:10:48.095940</dc:date>
    <dc:format>image/svg+xml</dc:format>
    <dc:creator>
     <cc:Agent>
      <dc:title>Matplotlib v3.11.2, https://matplotlib.org/</dc:title>
     </cc:Agent>
    </dc:creator>
   </cc:Work>
  </rdf:RDF>
 </metadata>
 <defs>
  <style type="text/css">*{stroke-linejoin: round; stroke-linecap: butt}</style>
 </defs>
 <g id="figure_1">
  <g id="patch_1">
   <path d="M 0 266.4
L 511.2 266.4
L 511.2 0
L 0 0
z
" style="fill: #ffffff"/>
  </g>
  <g id="axes_1">
   <g id="patch_2">
    <path d="M 27.40032 40.0266
L 122.48352 40.0266
L 122.48352 12.9204
L 27.40032 12.9204
z
" clip-path="url(#pb3619738d7)" style="fill: #f1f4f6; stroke: #171c20; stroke-width: 0.85; stroke-linejoin: miter"/>
   </g>
   <g id="patch_3">
    <path d="M 147.83904 40.0266
L 242.92224 40.0266
L 242.92224 12.9204
L 147.83904 12.9204
z
" clip-path="url(#pb3619738d7)" style="fill: #f1f4f6; stroke: #171c20; stroke-width: 0.85; stroke-linejoin: miter"/>
   </g>
   <g id="patch_4">
    <path d="M 268.27776 40.0266
L 363.36096 40.0266
L 363.36096 12.9204
L 268.27776 12.9204
z
" clip-path="url(#pb3619738d7)" style="fill: #f1f4f6; stroke: #171c20; stroke-width: 0.85; stroke-linejoin: miter"/>
   </g>
   <g id="patch_5">
    <path d="M 388.71648 40.0266
L 483.79968 40.0266
L 483.79968 12.9204
L 388.71648 12.9204
z
" clip-path="url(#pb3619738d7)" style="fill: #f1f4f6; stroke: #171c20; stroke-width: 0.85; stroke-linejoin: miter"/>
   </g>
   <g id="patch_6">
    <path d="M 190.62648 69.597
L 200.1348 69.597
L 200.1348 54.8118
L 190.62648 54.8118
z
" clip-path="url(#pb3619738d7)" style="fill: #e3e9ee; stroke: #66717c; stroke-width: 0.6; stroke-linejoin: miter"/>
   </g>
   <g id="patch_7">
    <path d="M 76.945066 59.7402
Q 135.163481 59.7402 192.431566 59.7402
" clip-path="url(#pb3619738d7)" style="fill: none; stroke: #171c20; stroke-width: 0.85; stroke-linecap: round"/>
    <path d="M 188.831566 57.9402
L 192.431566 59.7402
L 188.831566 61.5402
" clip-path="url(#pb3619738d7)" style="fill: none; stroke: #171c20; stroke-width: 0.85; stroke-linecap: round"/>
   </g>
   <g id="patch_8">
    <path d="M 311.0652 112.10445
L 320.57352 112.10445
L 320.57352 97.31925
L 311.0652 97.31925
z
" clip-path="url(#pb3619738d7)" style="fill: #e3e9ee; stroke: #66717c; stroke-width: 0.6; stroke-linejoin: miter"/>
   </g>
   <g id="patch_9">
    <path d="M 197.383786 102.24765
Q 255.602201 102.24765 312.870286 102.24765
" clip-path="url(#pb3619738d7)" style="fill: none; stroke: #171c20; stroke-width: 0.85; stroke-linecap: round"/>
    <path d="M 309.270286 100.44765
L 312.870286 102.24765
L 309.270286 104.04765
" clip-path="url(#pb3619738d7)" style="fill: none; stroke: #171c20; stroke-width: 0.85; stroke-linecap: round"/>
   </g>
   <g id="patch_10">
    <path d="M 190.62648 154.6119
L 200.1348 154.6119
L 200.1348 139.8267
L 190.62648 139.8267
z
" clip-path="url(#pb3619738d7)" style="fill: #e3e9ee; stroke: #66717c; stroke-width: 0.6; stroke-linejoin: miter"/>
   </g>
   <g id="patch_11">
    <path d="M 313.816214 144.7551
Q 255.597799 144.7551 198.329714 144.7551
" clip-path="url(#pb3619738d7)" style="fill: none; stroke: #171c20; stroke-width: 0.85; stroke-linecap: round"/>
    <path d="M 201.929714 146.5551
L 198.329714 144.7551
L 201.929714 142.9551
" clip-path="url(#pb3619738d7)" style="fill: none; stroke: #171c20; stroke-width: 0.85; stroke-linecap: round"/>
   </g>
   <g id="patch_12">
    <path d="M 431.50392 197.11935
L 441.01224 197.11935
L 441.01224 182.33415
L 431.50392 182.33415
z
" clip-path="url(#pb3619738d7)" style="fill: #e3e9ee; stroke: #66717c; stroke-width: 0.6; stroke-linejoin: miter"/>
   </g>
   <g id="patch_13">
    <path d="M 197.383786 187.26255
Q 315.820399 187.26255 433.306683 187.26255
" clip-path="url(#pb3619738d7)" style="fill: none; stroke: #171c20; stroke-width: 0.85; stroke-linecap: round"/>
    <path d="M 429.706683 185.46255
L 433.306683 187.26255
L 429.706683 189.06255
" clip-path="url(#pb3619738d7)" style="fill: none; stroke: #171c20; stroke-width: 0.85; stroke-linecap: round"/>
   </g>
   <g id="line2d_1">
    <path d="M 74.94192 242.091
L 74.94192 40.0266
" clip-path="url(#pb3619738d7)" style="fill: none; stroke-dasharray: 2.8,2.1; stroke-dashoffset: 0; stroke: #66717c; stroke-width: 0.7"/>
   </g>
   <g id="line2d_2">
    <path d="M 195.38064 242.091
L 195.38064 40.0266
" clip-path="url(#pb3619738d7)" style="fill: none; stroke-dasharray: 2.8,2.1; stroke-dashoffset: 0; stroke: #66717c; stroke-width: 0.7"/>
   </g>
   <g id="line2d_3">
    <path d="M 315.81936 242.091
L 315.81936 40.0266
" clip-path="url(#pb3619738d7)" style="fill: none; stroke-dasharray: 2.8,2.1; stroke-dashoffset: 0; stroke: #66717c; stroke-width: 0.7"/>
   </g>
   <g id="line2d_4">
    <path d="M 436.25808 242.091
L 436.25808 40.0266
" clip-path="url(#pb3619738d7)" style="fill: none; stroke-dasharray: 2.8,2.1; stroke-dashoffset: 0; stroke: #66717c; stroke-width: 0.7"/>
   </g>
   <g id="text_1">
    <text style="font-size: 9.5px; font-family: 'Microsoft YaHei'; text-anchor: middle; fill: #171c20" x="74.94192" y="29.261249" transform="rotate(-0 74.94192 29.261249)">应用动作</text>
   </g>
   <g id="text_2">
    <text style="font-size: 9.5px; font-family: 'Microsoft YaHei'; text-anchor: middle; fill: #171c20" x="195.38064" y="29.12682" transform="rotate(-0 195.38064 29.12682)">State</text>
   </g>
   <g id="text_3">
    <text style="font-size: 9.5px; font-family: 'Microsoft YaHei'; text-anchor: middle; fill: #171c20" x="315.81936" y="29.122274" transform="rotate(-0 315.81936 29.122274)">localStorage</text>
   </g>
   <g id="text_4">
    <text style="font-size: 9.5px; font-family: 'Microsoft YaHei'; text-anchor: middle; fill: #171c20" x="436.25808" y="29.219687" transform="rotate(-0 436.25808 29.219687)">界面订阅者</text>
   </g>
   <g id="text_5">
    <g id="patch_14">
     <path d="M 111.49128 55.9818
L 158.83128 55.9818
L 158.83128 43.833382
L 111.49128 43.833382
z
" style="fill: #ffffff"/>
    </g>
    <text style="font-size: 9px; font-family: 'Microsoft YaHei'; text-anchor: middle; fill: #171c20" x="135.16128" y="52.531038" transform="rotate(-0 135.16128 52.531038)">形成新状态</text>
   </g>
   <g id="text_6">
    <g id="patch_15">
     <path d="M 203.465391 98.48925
L 307.734609 98.48925
L 307.734609 86.55177
L 203.465391 86.55177
z
" style="fill: #ffffff"/>
    </g>
    <text style="font-size: 9px; font-family: 'Microsoft YaHei'; text-anchor: middle; fill: #171c20" x="255.6" y="95.029875" transform="rotate(-0 255.6 95.029875)">JSON.stringify / setItem</text>
   </g>
   <g id="text_7">
    <g id="patch_16">
     <path d="M 222.93 140.9967
L 288.27 140.9967
L 288.27 128.839845
L 222.93 128.839845
z
" style="fill: #ffffff"/>
    </g>
    <text style="font-size: 9px; font-family: 'Microsoft YaHei'; text-anchor: middle; fill: #171c20" x="255.6" y="137.545938" transform="rotate(-0 255.6 137.545938)">成功或保存错误</text>
   </g>
   <g id="text_8">
    <g id="patch_17">
     <path d="M 292.14936 183.50415
L 339.48936 183.50415
L 339.48936 171.372607
L 292.14936 171.372607
z
" style="fill: #ffffff"/>
    </g>
    <text style="font-size: 9px; font-family: 'Microsoft YaHei'; text-anchor: middle; fill: #171c20" x="315.81936" y="180.053388" transform="rotate(-0 315.81936 180.053388)">通知订阅者</text>
   </g>
  </g>
 </g>
 <defs>
  <clipPath id="pb3619738d7">
   <rect x="17.892" y="7.992" width="475.416" height="246.42"/>
  </clipPath>
 </defs>
</svg>
