<?xml version="1.0" encoding="utf-8" standalone="no"?>
<!DOCTYPE svg PUBLIC "-//W3C//DTD SVG 1.1//EN"
  "http://www.w3.org/Graphics/SVG/1.1/DTD/svg11.dtd">
<svg xmlns:xlink="http://www.w3.org/1999/xlink" width="576pt" height="237.6pt" viewBox="0 0 576 237.6" xmlns="http://www.w3.org/2000/svg" version="1.1">
 <metadata>
  <rdf:RDF xmlns:dc="http://purl.org/dc/elements/1.1/" xmlns:cc="http://creativecommons.org/ns#" xmlns:rdf="http://www.w3.org/1999/02/22-rdf-syntax-ns#">
   <cc:Work>
    <dc:type rdf:resource="http://purl.org/dc/dcmitype/StillImage"/>
    <dc:date>2026-10-09T11:16:50.972564</dc:date>
    <dc:format>image/svg+xml</dc:format>
    <dc:creator>
     <cc:Agent>
      <dc:title>Matplotlib v3.11.2, https://matplotlib.org/</dc:title>
     </cc:Agent>
    </dc:creator>
   </cc:Work>
  </rdf:RDF>
 </metadata>
 <defs>
  <style type="text/css">*{stroke-linejoin: round; stroke-linecap: butt}</style>
 </defs>
 <g id="figure_1">
  <g id="patch_1">
   <path d="M 0 237.6
L 576 237.6
L 576 0
L 0 0
z
" style="fill: #ffffff"/>
  </g>
  <g id="axes_1">
   <g id="patch_2">
    <path d="M 30.722 79.09
L 178.52 79.09
L 178.52 37.29
L 30.722 37.29
z
" clip-path="url(#p45578614a0)" style="fill: #ffffff; stroke: #65727c; stroke-linejoin: miter"/>
   </g>
   <g id="patch_3">
    <path d="M 216.838 79.09
L 364.636 79.09
L 364.636 37.29
L 216.838 37.29
z
" clip-path="url(#p45578614a0)" style="fill: #ffffff; stroke: #65727c; stroke-linejoin: miter"/>
   </g>
   <g id="patch_4">
    <path d="M 402.954 79.09
L 550.752 79.09
L 550.752 37.29
L 402.954 37.29
z
" clip-path="url(#p45578614a0)" style="fill: #ffffff; stroke: #65727c; stroke-linejoin: miter"/>
   </g>
   <g id="patch_5">
    <path d="M 180.517288 58.19
Q 197.677849 58.19 213.384966 58.19
" clip-path="url(#p45578614a0)" style="fill: none; stroke: #204e72; stroke-width: 1.3; stroke-linecap: round"/>
    <path d="M 208.584966 55.79
L 213.384966 58.19
L 208.584966 60.59
" clip-path="url(#p45578614a0)" style="fill: none; stroke: #204e72; stroke-width: 1.3; stroke-linecap: round"/>
   </g>
   <g id="patch_6">
    <path d="M 366.633288 58.19
Q 383.793849 58.19 399.500966 58.19
" clip-path="url(#p45578614a0)" style="fill: none; stroke: #204e72; stroke-width: 1.3; stroke-linecap: round"/>
    <path d="M 394.700966 55.79
L 399.500966 58.19
L 394.700966 60.59
" clip-path="url(#p45578614a0)" style="fill: none; stroke: #204e72; stroke-width: 1.3; stroke-linecap: round"/>
   </g>
   <g id="patch_7">
    <path d="M 216.838 177.32
L 364.636 177.32
L 364.636 135.52
L 216.838 135.52
z
" clip-path="url(#p45578614a0)" style="fill: #ffffff; stroke: #65727c; stroke-linejoin: miter"/>
   </g>
   <g id="patch_8">
    <path d="M 472.455491 80.199483
Q 419.376569 115.66462 367.506153 150.322283
" clip-path="url(#p45578614a0)" style="fill: none; stroke: #204e72; stroke-width: 1.3; stroke-linecap: round"/>
    <path d="M 372.830585 149.651147
L 367.506153 150.322283
L 370.163903 145.660056
" clip-path="url(#p45578614a0)" style="fill: none; stroke: #204e72; stroke-width: 1.3; stroke-linecap: round"/>
   </g>
   <g id="patch_9">
    <path d="M 286.08983 134.92329
Q 197.677082 107.304401 110.651663 80.118894
" clip-path="url(#p45578614a0)" style="fill: none; stroke: #204e72; stroke-width: 1.3; stroke-linecap: round"/>
    <path d="M 114.517694 83.840963
L 110.651663 80.118894
L 115.948938 79.259311
" clip-path="url(#p45578614a0)" style="fill: none; stroke: #204e72; stroke-width: 1.3; stroke-linecap: round"/>
   </g>
   <g id="text_1">
    <text style="font-size: 10px; font-family: 'Microsoft YaHei'; text-anchor: middle" x="104.621" y="61.119785" transform="rotate(-0 104.621 61.119785)">可编辑草稿</text>
   </g>
   <g id="text_2">
    <text style="font-size: 10px; font-family: 'Microsoft YaHei'; text-anchor: middle" x="290.737" y="61.109629" transform="rotate(-0 290.737 61.109629)">重量已确认</text>
   </g>
   <g id="text_3">
    <text style="font-size: 10px; font-family: 'Microsoft YaHei'; text-anchor: middle" x="476.853" y="61.115098" transform="rotate(-0 476.853 61.115098)">当前有效结果</text>
   </g>
   <g id="text_4">
    <g id="patch_10">
     <path d="M 186.699 56.180762
L 208.659 56.180762
L 208.659 42.429219
L 186.699 42.429219
z
" style="fill: #ffffff"/>
    </g>
    <text style="font-size: 9px; font-family: 'Microsoft YaHei'; text-anchor: middle; fill: #204e72" x="197.679" y="51.92" transform="rotate(-0 197.679 51.92)">校验</text>
   </g>
   <g id="text_5">
    <g id="patch_11">
     <path d="M 372.815 56.180762
L 394.775 56.180762
L 394.775 42.420781
L 372.815 42.420781
z
" style="fill: #ffffff"/>
    </g>
    <text style="font-size: 9px; font-family: 'Microsoft YaHei'; text-anchor: middle; fill: #204e72" x="383.795" y="51.92" transform="rotate(-0 383.795 51.92)">计算</text>
   </g>
   <g id="text_6">
    <text style="font-size: 10px; font-family: 'Microsoft YaHei'; text-anchor: middle" x="290.737" y="159.339629" transform="rotate(-0 290.737 159.339629)">输入或目标已变化</text>
   </g>
   <g id="text_7">
    <g id="patch_12">
     <path d="M 399.396 113.655762
L 439.356 113.655762
L 439.356 99.887344
L 399.396 99.887344
z
" style="fill: #ffffff"/>
    </g>
    <text style="font-size: 9px; font-family: 'Microsoft YaHei'; text-anchor: middle; fill: #204e72" x="419.376" y="109.395" transform="rotate(-0 419.376 109.395)">撤销出口</text>
   </g>
   <g id="text_8">
    <g id="patch_13">
     <path d="M 177.699 105.295762
L 217.659 105.295762
L 217.659 91.606094
L 177.699 91.606094
z
" style="fill: #ffffff"/>
    </g>
    <text style="font-size: 9px; font-family: 'Microsoft YaHei'; text-anchor: middle; fill: #204e72" x="197.679" y="101.035" transform="rotate(-0 197.679 101.035)">保留输入</text>
   </g>
   <g id="text_9">
    <text style="font-size: 10px; font-family: 'Microsoft YaHei'; text-anchor: middle" x="288" y="208.67" transform="rotate(-0 288 208.67)">配载确认另行绑定分舱、燃油及目的地与备降情景</text>
   </g>
  </g>
 </g>
 <defs>
  <clipPath id="p45578614a0">
   <rect x="14.3" y="14.3" width="547.4" height="209"/>
  </clipPath>
 </defs>
</svg>
