<?xml version="1.0" encoding="utf-8" standalone="no"?>
<!DOCTYPE svg PUBLIC "-//W3C//DTD SVG 1.1//EN"
  "http://www.w3.org/Graphics/SVG/1.1/DTD/svg11.dtd">
<svg xmlns:xlink="http://www.w3.org/1999/xlink" width="576pt" height="324pt" viewBox="0 0 576 324" xmlns="http://www.w3.org/2000/svg" version="1.1">
 <metadata>
  <rdf:RDF xmlns:dc="http://purl.org/dc/elements/1.1/" xmlns:cc="http://creativecommons.org/ns#" xmlns:rdf="http://www.w3.org/1999/02/22-rdf-syntax-ns#">
   <cc:Work>
    <dc:type rdf:resource="http://purl.org/dc/dcmitype/StillImage"/>
    <dc:date>2026-10-09T11:16:53.431090</dc:date>
    <dc:format>image/svg+xml</dc:format>
    <dc:creator>
     <cc:Agent>
      <dc:title>Matplotlib v3.11.2, https://matplotlib.org/</dc:title>
     </cc:Agent>
    </dc:creator>
   </cc:Work>
  </rdf:RDF>
 </metadata>
 <defs>
  <style type="text/css">*{stroke-linejoin: round; stroke-linecap: butt}</style>
 </defs>
 <g id="figure_1">
  <g id="patch_1">
   <path d="M 0 324
L 576 324
L 576 0
L 0 0
z
" style="fill: #ffffff"/>
  </g>
  <g id="axes_1">
   <g id="patch_2">
    <path d="M 56.459727 274.911426
L 561.7 274.911426
L 561.7 31.82
L 56.459727 31.82
z
" style="fill: #ffffff"/>
   </g>
   <g id="patch_3">
    <path d="M 171.287061 263.861816
L 79.425194 169.784812
L 171.287061 42.86961
L 483.617412 42.86961
L 538.734533 169.784812
L 538.734533 263.861816
z
" clip-path="url(#p4c5b650f8d)" style="fill: #204e72; opacity: 0.12; stroke: #204e72; stroke-linejoin: miter"/>
   </g>
   <g id="PathCollection_1">
    <defs>
     <path id="mf076bed4be" d="M 0 3
C 0.795609 3 1.55874 2.683901 2.12132 2.12132
C 2.683901 1.55874 3 0.795609 3 0
C 3 -0.795609 2.683901 -1.55874 2.12132 -2.12132
C 1.55874 -2.683901 0.795609 -3 0 -3
C -0.795609 -3 -1.55874 -2.683901 -2.12132 -2.12132
C -2.683901 -1.55874 -3 -0.795609 -3 0
C -3 0.795609 -2.683901 1.55874 -2.12132 2.12132
C -1.55874 2.683901 -0.795609 3 0 3
z
" style="stroke: #65727c"/>
    </defs>
    <g clip-path="url(#p4c5b650f8d)">
     <use xlink:href="#mf076bed4be" x="302.886155" y="214.160757" style="fill: #65727c; stroke: #65727c"/>
    </g>
   </g>
   <g id="PathCollection_2">
    <defs>
     <path id="m508651bb2d" d="M 0 3
C 0.795609 3 1.55874 2.683901 2.12132 2.12132
C 2.683901 1.55874 3 0.795609 3 0
C 3 -0.795609 2.683901 -1.55874 2.12132 -2.12132
C 1.55874 -2.683901 0.795609 -3 0 -3
C -0.795609 -3 -1.55874 -2.683901 -2.12132 -2.12132
C -2.683901 -1.55874 -3 -0.795609 -3 0
C -3 0.795609 -2.683901 1.55874 -2.12132 2.12132
C -1.55874 2.683901 -0.795609 3 0 3
z
" style="stroke: #204e72"/>
    </defs>
    <g clip-path="url(#p4c5b650f8d)">
     <use xlink:href="#m508651bb2d" x="331.330013" y="176.428779" style="fill: #204e72; stroke: #204e72"/>
    </g>
   </g>
   <g id="PathCollection_3">
    <defs>
     <path id="m4720d9df3c" d="M 0 3
C 0.795609 3 1.55874 2.683901 2.12132 2.12132
C 2.683901 1.55874 3 0.795609 3 0
C 3 -0.795609 2.683901 -1.55874 2.12132 -2.12132
C 1.55874 -2.683901 0.795609 -3 0 -3
C -0.795609 -3 -1.55874 -2.683901 -2.12132 -2.12132
C -2.683901 -1.55874 -3 -0.795609 -3 0
C -3 0.795609 -2.683901 1.55874 -2.12132 2.12132
C -1.55874 2.683901 -0.795609 3 0 3
z
" style="stroke: #9b6a24"/>
    </defs>
    <g clip-path="url(#p4c5b650f8d)">
     <use xlink:href="#m4720d9df3c" x="330.73998" y="177.316298" style="fill: #9b6a24; stroke: #9b6a24"/>
    </g>
   </g>
   <g id="PathCollection_4">
    <defs>
     <path id="m04707244c8" d="M 0 3
C 0.795609 3 1.55874 2.683901 2.12132 2.12132
C 2.683901 1.55874 3 0.795609 3 0
C 3 -0.795609 2.683901 -1.55874 2.12132 -2.12132
C 1.55874 -2.683901 0.795609 -3 0 -3
C -0.795609 -3 -1.55874 -2.683901 -2.12132 -2.12132
C -2.683901 -1.55874 -3 -0.795609 -3 0
C -3 0.795609 -2.683901 1.55874 -2.12132 2.12132
C -1.55874 2.683901 -0.795609 3 0 3
z
" style="stroke: #286f66"/>
    </defs>
    <g clip-path="url(#p4c5b650f8d)">
     <use xlink:href="#m04707244c8" x="311.614876" y="203.586857" style="fill: #286f66; stroke: #286f66"/>
    </g>
   </g>
   <g id="matplotlib.axis_1">
    <g id="xtick_1">
     <g id="line2d_1">
      <path d="M 79.425194 274.911426
L 79.425194 31.82
" clip-path="url(#p4c5b650f8d)" style="fill: none; stroke: #b0b0b0; stroke-opacity: 0.2; stroke-width: 0.8; stroke-linecap: square"/>
     </g>
     <g id="line2d_2">
      <defs>
       <path id="m0a2d51f218" d="M 0 0
L 0 3.5
" style="stroke: #000000; stroke-width: 0.8"/>
      </defs>
      <g>
       <use xlink:href="#m0a2d51f218" x="79.425194" y="274.911426" style="stroke: #000000; stroke-width: 0.8"/>
      </g>
     </g>
     <g id="text_1">
      <text style="font-size: 11px; font-family: 'Microsoft YaHei'; text-anchor: middle" x="79.425194" y="290.843555" transform="rotate(-0 79.425194 290.843555)">15</text>
     </g>
    </g>
    <g id="xtick_2">
     <g id="line2d_3">
      <path d="M 171.287061 274.911426
L 171.287061 31.82
" clip-path="url(#p4c5b650f8d)" style="fill: none; stroke: #b0b0b0; stroke-opacity: 0.2; stroke-width: 0.8; stroke-linecap: square"/>
     </g>
     <g id="line2d_4">
      <g>
       <use xlink:href="#m0a2d51f218" x="171.287061" y="274.911426" style="stroke: #000000; stroke-width: 0.8"/>
      </g>
     </g>
     <g id="text_2">
      <text style="font-size: 11px; font-family: 'Microsoft YaHei'; text-anchor: middle" x="171.287061" y="290.843555" transform="rotate(-0 171.287061 290.843555)">20</text>
     </g>
    </g>
    <g id="xtick_3">
     <g id="line2d_5">
      <path d="M 263.148929 274.911426
L 263.148929 31.82
" clip-path="url(#p4c5b650f8d)" style="fill: none; stroke: #b0b0b0; stroke-opacity: 0.2; stroke-width: 0.8; stroke-linecap: square"/>
     </g>
     <g id="line2d_6">
      <g>
       <use xlink:href="#m0a2d51f218" x="263.148929" y="274.911426" style="stroke: #000000; stroke-width: 0.8"/>
      </g>
     </g>
     <g id="text_3">
      <text style="font-size: 11px; font-family: 'Microsoft YaHei'; text-anchor: middle" x="263.148929" y="290.843555" transform="rotate(-0 263.148929 290.843555)">25</text>
     </g>
    </g>
    <g id="xtick_4">
     <g id="line2d_7">
      <path d="M 355.010797 274.911426
L 355.010797 31.82
" clip-path="url(#p4c5b650f8d)" style="fill: none; stroke: #b0b0b0; stroke-opacity: 0.2; stroke-width: 0.8; stroke-linecap: square"/>
     </g>
     <g id="line2d_8">
      <g>
       <use xlink:href="#m0a2d51f218" x="355.010797" y="274.911426" style="stroke: #000000; stroke-width: 0.8"/>
      </g>
     </g>
     <g id="text_4">
      <text style="font-size: 11px; font-family: 'Microsoft YaHei'; text-anchor: middle" x="355.010797" y="290.843555" transform="rotate(-0 355.010797 290.843555)">30</text>
     </g>
    </g>
    <g id="xtick_5">
     <g id="line2d_9">
      <path d="M 446.872665 274.911426
L 446.872665 31.82
" clip-path="url(#p4c5b650f8d)" style="fill: none; stroke: #b0b0b0; stroke-opacity: 0.2; stroke-width: 0.8; stroke-linecap: square"/>
     </g>
     <g id="line2d_10">
      <g>
       <use xlink:href="#m0a2d51f218" x="446.872665" y="274.911426" style="stroke: #000000; stroke-width: 0.8"/>
      </g>
     </g>
     <g id="text_5">
      <text style="font-size: 11px; font-family: 'Microsoft YaHei'; text-anchor: middle" x="446.872665" y="290.843555" transform="rotate(-0 446.872665 290.843555)">35</text>
     </g>
    </g>
    <g id="xtick_6">
     <g id="line2d_11">
      <path d="M 538.734533 274.911426
L 538.734533 31.82
" clip-path="url(#p4c5b650f8d)" style="fill: none; stroke: #b0b0b0; stroke-opacity: 0.2; stroke-width: 0.8; stroke-linecap: square"/>
     </g>
     <g id="line2d_12">
      <g>
       <use xlink:href="#m0a2d51f218" x="538.734533" y="274.911426" style="stroke: #000000; stroke-width: 0.8"/>
      </g>
     </g>
     <g id="text_6">
      <text style="font-size: 11px; font-family: 'Microsoft YaHei'; text-anchor: middle" x="538.734533" y="290.843555" transform="rotate(-0 538.734533 290.843555)">40</text>
     </g>
    </g>
    <g id="text_7">
     <text style="font-size: 11px; font-family: 'Microsoft YaHei'; text-anchor: middle" x="309.079863" y="306.864277" transform="rotate(-0 309.079863 306.864277)">纵向重心 (% MAC)</text>
    </g>
   </g>
   <g id="matplotlib.axis_2">
    <g id="ytick_1">
     <g id="line2d_13">
      <path d="M 56.459727 240.786324
L 561.7 240.786324
" clip-path="url(#p4c5b650f8d)" style="fill: none; stroke: #b0b0b0; stroke-opacity: 0.2; stroke-width: 0.8; stroke-linecap: square"/>
     </g>
     <g id="line2d_14">
      <defs>
       <path id="mb7ad54115f" d="M 0 0
L -3.5 0
" style="stroke: #000000; stroke-width: 0.8"/>
      </defs>
      <g>
       <use xlink:href="#mb7ad54115f" x="56.459727" y="240.786324" style="stroke: #000000; stroke-width: 0.8"/>
      </g>
     </g>
     <g id="text_8">
      <text style="font-size: 11px; font-family: 'Microsoft YaHei'; text-anchor: end" x="49.459727" y="245.252389" transform="rotate(-0 49.459727 245.252389)">140</text>
     </g>
    </g>
    <g id="ytick_2">
     <g id="line2d_15">
      <path d="M 56.459727 205.285568
L 561.7 205.285568
" clip-path="url(#p4c5b650f8d)" style="fill: none; stroke: #b0b0b0; stroke-opacity: 0.2; stroke-width: 0.8; stroke-linecap: square"/>
     </g>
     <g id="line2d_16">
      <g>
       <use xlink:href="#mb7ad54115f" x="56.459727" y="205.285568" style="stroke: #000000; stroke-width: 0.8"/>
      </g>
     </g>
     <g id="text_9">
      <text style="font-size: 11px; font-family: 'Microsoft YaHei'; text-anchor: end" x="49.459727" y="209.751633" transform="rotate(-0 49.459727 209.751633)">160</text>
     </g>
    </g>
    <g id="ytick_3">
     <g id="line2d_17">
      <path d="M 56.459727 169.784812
L 561.7 169.784812
" clip-path="url(#p4c5b650f8d)" style="fill: none; stroke: #b0b0b0; stroke-opacity: 0.2; stroke-width: 0.8; stroke-linecap: square"/>
     </g>
     <g id="line2d_18">
      <g>
       <use xlink:href="#mb7ad54115f" x="56.459727" y="169.784812" style="stroke: #000000; stroke-width: 0.8"/>
      </g>
     </g>
     <g id="text_10">
      <text style="font-size: 11px; font-family: 'Microsoft YaHei'; text-anchor: end" x="49.459727" y="174.250877" transform="rotate(-0 49.459727 174.250877)">180</text>
     </g>
    </g>
    <g id="ytick_4">
     <g id="line2d_19">
      <path d="M 56.459727 134.284057
L 561.7 134.284057
" clip-path="url(#p4c5b650f8d)" style="fill: none; stroke: #b0b0b0; stroke-opacity: 0.2; stroke-width: 0.8; stroke-linecap: square"/>
     </g>
     <g id="line2d_20">
      <g>
       <use xlink:href="#mb7ad54115f" x="56.459727" y="134.284057" style="stroke: #000000; stroke-width: 0.8"/>
      </g>
     </g>
     <g id="text_11">
      <text style="font-size: 11px; font-family: 'Microsoft YaHei'; text-anchor: end" x="49.459727" y="138.750121" transform="rotate(-0 49.459727 138.750121)">200</text>
     </g>
    </g>
    <g id="ytick_5">
     <g id="line2d_21">
      <path d="M 56.459727 98.783301
L 561.7 98.783301
" clip-path="url(#p4c5b650f8d)" style="fill: none; stroke: #b0b0b0; stroke-opacity: 0.2; stroke-width: 0.8; stroke-linecap: square"/>
     </g>
     <g id="line2d_22">
      <g>
       <use xlink:href="#mb7ad54115f" x="56.459727" y="98.783301" style="stroke: #000000; stroke-width: 0.8"/>
      </g>
     </g>
     <g id="text_12">
      <text style="font-size: 11px; font-family: 'Microsoft YaHei'; text-anchor: end" x="49.459727" y="103.249365" transform="rotate(-0 49.459727 103.249365)">220</text>
     </g>
    </g>
    <g id="ytick_6">
     <g id="line2d_23">
      <path d="M 56.459727 63.282545
L 561.7 63.282545
" clip-path="url(#p4c5b650f8d)" style="fill: none; stroke: #b0b0b0; stroke-opacity: 0.2; stroke-width: 0.8; stroke-linecap: square"/>
     </g>
     <g id="line2d_24">
      <g>
       <use xlink:href="#mb7ad54115f" x="56.459727" y="63.282545" style="stroke: #000000; stroke-width: 0.8"/>
      </g>
     </g>
     <g id="text_13">
      <text style="font-size: 11px; font-family: 'Microsoft YaHei'; text-anchor: end" x="49.459727" y="67.748609" transform="rotate(-0 49.459727 67.748609)">240</text>
     </g>
    </g>
    <g id="text_14">
     <text style="font-size: 11px; font-family: 'Microsoft YaHei'; text-anchor: middle" x="23.320723" y="153.365713" transform="rotate(-90 23.320723 153.365713)">质量 (t)</text>
    </g>
   </g>
   <g id="patch_4">
    <path d="M 56.459727 274.911426
L 56.459727 31.82
" style="fill: none; stroke: #000000; stroke-width: 0.8; stroke-linejoin: miter; stroke-linecap: square"/>
   </g>
   <g id="patch_5">
    <path d="M 561.7 274.911426
L 561.7 31.82
" style="fill: none; stroke: #000000; stroke-width: 0.8; stroke-linejoin: miter; stroke-linecap: square"/>
   </g>
   <g id="patch_6">
    <path d="M 56.459727 274.911426
L 561.7 274.911426
" style="fill: none; stroke: #000000; stroke-width: 0.8; stroke-linejoin: miter; stroke-linecap: square"/>
   </g>
   <g id="patch_7">
    <path d="M 56.459727 31.82
L 561.7 31.82
" style="fill: none; stroke: #000000; stroke-width: 0.8; stroke-linejoin: miter; stroke-linecap: square"/>
   </g>
   <g id="patch_8">
    <path d="M 296.118296 219.765709
Q 298.730597 217.602274 301.342898 215.438839
" style="fill: none; stroke: #65727c; stroke-width: 0.6; stroke-linecap: round"/>
   </g>
   <g id="text_15">
    <text style="font-size: 10px; font-family: 'Microsoft YaHei'; text-anchor: start" x="274.886155" y="231.160757" transform="rotate(-0 274.886155 231.160757)">ZFW</text>
   </g>
   <g id="patch_9">
    <path d="M 318.684701 166.21787
Q 324.22783 170.693868 329.770959 175.169866
" style="fill: none; stroke: #65727c; stroke-width: 0.6; stroke-linecap: round"/>
   </g>
   <g id="text_16">
    <text style="font-size: 10px; font-family: 'Microsoft YaHei'; text-anchor: start" x="293.330013" y="160.428779" transform="rotate(-0 293.330013 160.428779)">RAMP</text>
   </g>
   <g id="patch_10">
    <path d="M 336.761002 178.125846
Q 334.742725 177.854481 332.724448 177.583117
" style="fill: none; stroke: #65727c; stroke-width: 0.6; stroke-linecap: round"/>
   </g>
   <g id="text_17">
    <text style="font-size: 10px; font-family: 'Microsoft YaHei'; text-anchor: start" x="340.73998" y="184.316298" transform="rotate(-0 340.73998 184.316298)">TAKEOFF</text>
   </g>
   <g id="patch_11">
    <path d="M 322.367983 199.786208
Q 317.935214 201.352955 313.502446 202.919702
" style="fill: none; stroke: #65727c; stroke-width: 0.6; stroke-linecap: round"/>
   </g>
   <g id="text_18">
    <text style="font-size: 10px; font-family: 'Microsoft YaHei'; text-anchor: start" x="321.614876" y="194.586857" transform="rotate(-0 321.614876 194.586857)">LANDING</text>
   </g>
   <g id="text_19">
    <text style="font-size: 13.2px; font-family: 'Microsoft YaHei'; text-anchor: middle" x="309.079863" y="25.82" transform="rotate(-0 309.079863 25.82)">模型假设包线与当前阶段计算点</text>
   </g>
  </g>
 </g>
 <defs>
  <clipPath id="p4c5b650f8d">
   <rect x="56.459727" y="31.82" width="505.240273" height="243.091426"/>
  </clipPath>
 </defs>
</svg>
