<svg xmlns="http://www.w3.org/2000/svg" viewBox="0 0 499.27560000000005 210"><rect width="100%" height="100%" fill="white"/><line x1="42" y1="22" x2="42" y2="178" stroke="#17334f" stroke-width="1.2"/><line x1="42" y1="178" x2="489.27560000000005" y2="178" stroke="#17334f" stroke-width="1.2"/><line x1="42" y1="161.0857142857143" x2="489.27560000000005" y2="161.0857142857143" stroke="#dce6ec" stroke-width="1.2"/><text x="36" y="164.0857142857143" text-anchor="end" font-size="8" font-family="Microsoft YaHei,Arial,sans-serif" fill="#17334f">140</text><line x1="42" y1="139.94285714285715" x2="489.27560000000005" y2="139.94285714285715" stroke="#dce6ec" stroke-width="1.2"/><text x="36" y="142.94285714285715" text-anchor="end" font-size="8" font-family="Microsoft YaHei,Arial,sans-serif" fill="#17334f">145</text><line x1="42" y1="118.8" x2="489.27560000000005" y2="118.8" stroke="#dce6ec" stroke-width="1.2"/><text x="36" y="121.8" text-anchor="end" font-size="8" font-family="Microsoft YaHei,Arial,sans-serif" fill="#17334f">150</text><line x1="42" y1="97.65714285714286" x2="489.27560000000005" y2="97.65714285714286" stroke="#dce6ec" stroke-width="1.2"/><text x="36" y="100.65714285714286" text-anchor="end" font-size="8" font-family="Microsoft YaHei,Arial,sans-serif" fill="#17334f">155</text><line x1="42" y1="76.51428571428572" x2="489.27560000000005" y2="76.51428571428572" stroke="#dce6ec" stroke-width="1.2"/><text x="36" y="79.51428571428572" text-anchor="end" font-size="8" font-family="Microsoft YaHei,Arial,sans-serif" fill="#17334f">160</text><line x1="42" y1="55.37142857142857" x2="489.27560000000005" y2="55.37142857142857" stroke="#dce6ec" stroke-width="1.2"/><text x="36" y="58.37142857142857" text-anchor="end" font-size="8" font-family="Microsoft YaHei,Arial,sans-serif" fill="#17334f">165</text><line x1="42" y1="34.22857142857143" x2="489.27560000000005" y2="34.22857142857143" stroke="#dce6ec" stroke-width="1.2"/><text x="36" y="37.22857142857143" text-anchor="end" font-size="8" font-family="Microsoft YaHei,Arial,sans-serif" fill="#17334f">170</text><text x="42.0" y="194" text-anchor="middle" font-size="8" font-family="Microsoft YaHei,Arial,sans-serif" fill="#17334f">130</text><text x="114.87926666666667" y="194" text-anchor="middle" font-size="8" font-family="Microsoft YaHei,Arial,sans-serif" fill="#17334f">150</text><text x="187.75853333333333" y="194" text-anchor="middle" font-size="8" font-family="Microsoft YaHei,Arial,sans-serif" fill="#17334f">170</text><text x="260.6378" y="194" text-anchor="middle" font-size="8" font-family="Microsoft YaHei,Arial,sans-serif" fill="#17334f">190</text><text x="333.51706666666666" y="194" text-anchor="middle" font-size="8" font-family="Microsoft YaHei,Arial,sans-serif" fill="#17334f">210</text><text x="406.3963333333334" y="194" text-anchor="middle" font-size="8" font-family="Microsoft YaHei,Arial,sans-serif" fill="#17334f">230</text><text x="479.27560000000005" y="194" text-anchor="middle" font-size="8" font-family="Microsoft YaHei,Arial,sans-serif" fill="#17334f">250</text><line x1="42.0" y1="135.71428571428572" x2="78.43963333333333" y2="135.71428571428572" stroke="#285f86" stroke-width="1.2"/><line x1="78.43963333333333" y1="135.71428571428572" x2="114.87926666666667" y2="135.71428571428572" stroke="#285f86" stroke-width="1.2"/><line x1="114.87926666666667" y1="135.71428571428572" x2="151.3189" y2="139.94285714285715" stroke="#285f86" stroke-width="1.2"/><line x1="151.3189" y1="139.94285714285715" x2="187.75853333333333" y2="139.94285714285715" stroke="#285f86" stroke-width="1.2"/><line x1="187.75853333333333" y1="139.94285714285715" x2="224.1981666666667" y2="123.02857142857142" stroke="#285f86" stroke-width="1.2"/><line x1="224.1981666666667" y1="123.02857142857142" x2="260.6378" y2="106.11428571428571" stroke="#285f86" stroke-width="1.2"/><line x1="260.6378" y1="106.11428571428571" x2="297.0774333333334" y2="89.2" stroke="#285f86" stroke-width="1.2"/><line x1="297.0774333333334" y1="89.2" x2="333.51706666666666" y2="72.28571428571428" stroke="#285f86" stroke-width="1.2"/><line x1="333.51706666666666" y1="72.28571428571428" x2="369.95670000000007" y2="59.599999999999994" stroke="#285f86" stroke-width="1.2"/><line x1="369.95670000000007" y1="59.599999999999994" x2="406.3963333333334" y2="59.599999999999994" stroke="#285f86" stroke-width="1.2"/><line x1="406.3963333333334" y1="59.599999999999994" x2="442.8359666666667" y2="46.91428571428571" stroke="#285f86" stroke-width="1.2"/><line x1="442.8359666666667" y1="46.91428571428571" x2="479.27560000000005" y2="42.68571428571428" stroke="#285f86" stroke-width="1.2"/><text x="95" y="13" text-anchor="middle" font-size="9" font-family="Microsoft YaHei,Arial,sans-serif" fill="#285f86">CONF 1</text><line x1="42.0" y1="148.4" x2="78.43963333333333" y2="148.4" stroke="#177d83" stroke-width="1.2"/><line x1="78.43963333333333" y1="148.4" x2="114.87926666666667" y2="148.4" stroke="#177d83" stroke-width="1.2"/><line x1="114.87926666666667" y1="148.4" x2="151.3189" y2="148.4" stroke="#177d83" stroke-width="1.2"/><line x1="151.3189" y1="148.4" x2="187.75853333333333" y2="152.62857142857143" stroke="#177d83" stroke-width="1.2"/><line x1="187.75853333333333" y1="152.62857142857143" x2="224.1981666666667" y2="152.62857142857143" stroke="#177d83" stroke-width="1.2"/><line x1="224.1981666666667" y1="152.62857142857143" x2="260.6378" y2="135.71428571428572" stroke="#177d83" stroke-width="1.2"/><line x1="260.6378" y1="135.71428571428572" x2="297.0774333333334" y2="118.8" stroke="#177d83" stroke-width="1.2"/><line x1="297.0774333333334" y1="118.8" x2="333.51706666666666" y2="101.8857142857143" stroke="#177d83" stroke-width="1.2"/><line x1="333.51706666666666" y1="101.8857142857143" x2="369.95670000000007" y2="89.2" stroke="#177d83" stroke-width="1.2"/><line x1="369.95670000000007" y1="89.2" x2="406.3963333333334" y2="72.28571428571428" stroke="#177d83" stroke-width="1.2"/><line x1="406.3963333333334" y1="72.28571428571428" x2="442.8359666666667" y2="55.37142857142857" stroke="#177d83" stroke-width="1.2"/><line x1="442.8359666666667" y1="55.37142857142857" x2="479.27560000000005" y2="55.37142857142857" stroke="#177d83" stroke-width="1.2"/><text x="220" y="13" text-anchor="middle" font-size="9" font-family="Microsoft YaHei,Arial,sans-serif" fill="#177d83">CONF 2</text><line x1="42.0" y1="156.85714285714286" x2="78.43963333333333" y2="156.85714285714286" stroke="#b47724" stroke-width="1.2"/><line x1="78.43963333333333" y1="156.85714285714286" x2="114.87926666666667" y2="156.85714285714286" stroke="#b47724" stroke-width="1.2"/><line x1="114.87926666666667" y1="156.85714285714286" x2="151.3189" y2="161.0857142857143" stroke="#b47724" stroke-width="1.2"/><line x1="151.3189" y1="161.0857142857143" x2="187.75853333333333" y2="161.0857142857143" stroke="#b47724" stroke-width="1.2"/><line x1="187.75853333333333" y1="161.0857142857143" x2="224.1981666666667" y2="165.31428571428572" stroke="#b47724" stroke-width="1.2"/><line x1="224.1981666666667" y1="165.31428571428572" x2="260.6378" y2="156.85714285714286" stroke="#b47724" stroke-width="1.2"/><line x1="260.6378" y1="156.85714285714286" x2="297.0774333333334" y2="139.94285714285715" stroke="#b47724" stroke-width="1.2"/><line x1="297.0774333333334" y1="139.94285714285715" x2="333.51706666666666" y2="127.25714285714287" stroke="#b47724" stroke-width="1.2"/><line x1="333.51706666666666" y1="127.25714285714287" x2="369.95670000000007" y2="114.57142857142858" stroke="#b47724" stroke-width="1.2"/><line x1="369.95670000000007" y1="114.57142857142858" x2="406.3963333333334" y2="51.14285714285715" stroke="#b47724" stroke-width="1.2"/><line x1="406.3963333333334" y1="51.14285714285715" x2="442.8359666666667" y2="51.14285714285715" stroke="#b47724" stroke-width="1.2"/><line x1="442.8359666666667" y1="51.14285714285715" x2="479.27560000000005" y2="51.14285714285715" stroke="#b47724" stroke-width="1.2"/><text x="345" y="13" text-anchor="middle" font-size="9" font-family="Microsoft YaHei,Arial,sans-serif" fill="#b47724">CONF 3</text><text x="249.63780000000003" y="209" text-anchor="middle" font-size="9" font-family="Microsoft YaHei,Arial,sans-serif" fill="#17334f">质量 / t</text><text x="5" y="14" text-anchor="start" font-size="8" font-family="Microsoft YaHei,Arial,sans-serif" fill="#17334f">V2 / kt</text></svg>