<svg xmlns="http://www.w3.org/2000/svg" viewBox="0 0 499.27560000000005 220"><rect width="100%" height="100%" fill="white"/><line x1="238.63780000000003" y1="42.5" x2="260.6378" y2="42.5" stroke="#177d83" stroke-width="1.2"/><line x1="256.2498871905482" y1="44.89712769302101" x2="260.6378" y2="42.5" stroke="#177d83" stroke-width="1.2"/><line x1="256.2498871905482" y1="40.10287230697899" x2="260.6378" y2="42.5" stroke="#177d83" stroke-width="1.2"/><line x1="119.31890000000001" y1="85.0" x2="119.31890000000001" y2="115.0" stroke="#177d83" stroke-width="1.2"/><line x1="116.921772306979" y1="110.61208719054814" x2="119.31890000000001" y2="115.0" stroke="#177d83" stroke-width="1.2"/><line x1="121.71602769302103" y1="110.61208719054814" x2="119.31890000000001" y2="115.0" stroke="#177d83" stroke-width="1.2"/><line x1="260.6378" y1="157.5" x2="238.63780000000003" y2="157.5" stroke="#177d83" stroke-width="1.2"/><line x1="243.0257128094519" y1="155.10287230697898" x2="238.63780000000003" y2="157.5" stroke="#177d83" stroke-width="1.2"/><line x1="243.0257128094519" y1="159.89712769302102" x2="238.63780000000003" y2="157.5" stroke="#177d83" stroke-width="1.2"/><rect x="0.0" y="0.0" width="238.63780000000003" height="85.0" rx="3" fill="#edf4f8" stroke="#afc3d2"/><text x="119.31890000000001" y="20.0" text-anchor="middle" font-size="9.4" font-family="Microsoft YaHei,Arial,sans-serif" fill="#17334f" font-weight="700">Flight</text><line x1="5.0" y1="29.0" x2="233.63780000000003" y2="29.0" stroke="#afc3d2" stroke-width="1.2"/><text x="8.0" y="49.0" text-anchor="start" font-size="8.7" font-family="Microsoft YaHei,Arial,sans-serif" fill="#17334f">航班输入</text><text x="8.0" y="67.0" text-anchor="start" font-size="8.7" font-family="Microsoft YaHei,Arial,sans-serif" fill="#17334f">确认签名</text><rect x="260.6378" y="0.0" width="238.63780000000003" height="85.0" rx="3" fill="#edf4f8" stroke="#afc3d2"/><text x="379.95670000000007" y="20.0" text-anchor="middle" font-size="9.4" font-family="Microsoft YaHei,Arial,sans-serif" fill="#17334f" font-weight="700">Result</text><line x1="265.6378" y1="29.0" x2="494.27560000000005" y2="29.0" stroke="#afc3d2" stroke-width="1.2"/><text x="268.6378" y="49.0" text-anchor="start" font-size="8.7" font-family="Microsoft YaHei,Arial,sans-serif" fill="#17334f">输入快照</text><text x="268.6378" y="67.0" text-anchor="start" font-size="8.7" font-family="Microsoft YaHei,Arial,sans-serif" fill="#17334f">计算值与版本</text><rect x="0.0" y="115.0" width="238.63780000000003" height="85.0" rx="3" fill="#edf4f8" stroke="#afc3d2"/><text x="119.31890000000001" y="135.0" text-anchor="middle" font-size="9.4" font-family="Microsoft YaHei,Arial,sans-serif" fill="#17334f" font-weight="700">原生 Store</text><line x1="5.0" y1="144.0" x2="233.63780000000003" y2="144.0" stroke="#afc3d2" stroke-width="1.2"/><text x="8.0" y="164.0" text-anchor="start" font-size="8.7" font-family="Microsoft YaHei,Arial,sans-serif" fill="#17334f">兼容航班</text><text x="8.0" y="182.0" text-anchor="start" font-size="8.7" font-family="Microsoft YaHei,Arial,sans-serif" fill="#17334f">页面展示状态</text><rect x="260.6378" y="115.0" width="238.63780000000003" height="85.0" rx="3" fill="#edf4f8" stroke="#afc3d2"/><text x="379.95670000000007" y="135.0" text-anchor="middle" font-size="9.4" font-family="Microsoft YaHei,Arial,sans-serif" fill="#17334f" font-weight="700">Host Snapshot</text><line x1="265.6378" y1="144.0" x2="494.27560000000005" y2="144.0" stroke="#afc3d2" stroke-width="1.2"/><text x="268.6378" y="164.0" text-anchor="start" font-size="8.7" font-family="Microsoft YaHei,Arial,sans-serif" fill="#17334f">当前状态</text><text x="268.6378" y="182.0" text-anchor="start" font-size="8.7" font-family="Microsoft YaHei,Arial,sans-serif" fill="#17334f">采样语义</text><text x="249.63780000000003" y="217.0" text-anchor="middle" font-size="8.5" font-family="Microsoft YaHei,Arial,sans-serif" fill="#54677a">计算；投影；观测</text></svg>