<svg xmlns="http://www.w3.org/2000/svg" viewBox="0 0 499.27560000000005 180"><rect width="100%" height="100%" fill="white"/><line x1="142.0" y1="34.5" x2="178.63780000000003" y2="34.5" stroke="#177d83" stroke-width="1.2"/><line x1="174.24988719054815" y1="36.89712769302101" x2="178.63780000000003" y2="34.5" stroke="#177d83" stroke-width="1.2"/><line x1="174.24988719054815" y1="32.10287230697899" x2="178.63780000000003" y2="34.5" stroke="#177d83" stroke-width="1.2"/><rect x="155.3189" y="28.5" width="10" height="12" rx="3" fill="#ffffff" stroke="#ffffff"/><text x="160.3189" y="37.5" text-anchor="middle" font-size="7.5" font-family="Microsoft YaHei,Arial,sans-serif" fill="#17334f">1</text><line x1="320.6378" y1="34.5" x2="357.27560000000005" y2="34.5" stroke="#177d83" stroke-width="1.2"/><line x1="352.8876871905482" y1="36.89712769302101" x2="357.27560000000005" y2="34.5" stroke="#177d83" stroke-width="1.2"/><line x1="352.8876871905482" y1="32.10287230697899" x2="357.27560000000005" y2="34.5" stroke="#177d83" stroke-width="1.2"/><rect x="333.95670000000007" y="28.5" width="10" height="12" rx="3" fill="#ffffff" stroke="#ffffff"/><text x="338.95670000000007" y="37.5" text-anchor="middle" font-size="7.5" font-family="Microsoft YaHei,Arial,sans-serif" fill="#17334f">2</text><line x1="357.27560000000005" y1="34.5" x2="142.0" y2="111.5" stroke="#177d83" stroke-width="1.2"/><line x1="145.32425812981558" y1="107.76512277492887" x2="142.0" y2="111.5" stroke="#177d83" stroke-width="1.2"/><line x1="146.93889514955745" y1="112.27930398541125" x2="142.0" y2="111.5" stroke="#177d83" stroke-width="1.2"/><rect x="244.63780000000003" y="67.0" width="10" height="12" rx="3" fill="#ffffff" stroke="#ffffff"/><text x="249.63780000000003" y="76.0" text-anchor="middle" font-size="7.5" font-family="Microsoft YaHei,Arial,sans-serif" fill="#17334f">3</text><line x1="357.27560000000005" y1="34.5" x2="320.6378" y2="111.5" stroke="#177d83" stroke-width="1.2"/><line x1="320.35851328404635" y1="106.50780620064768" x2="320.6378" y2="111.5" stroke="#177d83" stroke-width="1.2"/><line x1="324.6876869760648" y1="108.56769451095201" x2="320.6378" y2="111.5" stroke="#177d83" stroke-width="1.2"/><rect x="333.95670000000007" y="67.0" width="10" height="12" rx="3" fill="#ffffff" stroke="#ffffff"/><text x="338.95670000000007" y="76.0" text-anchor="middle" font-size="7.5" font-family="Microsoft YaHei,Arial,sans-serif" fill="#17334f">4</text><line x1="71.0" y1="85.0" x2="71.0" y2="61.0" stroke="#177d83" stroke-width="1.2"/><line x1="73.39712769302102" y1="65.38791280945186" x2="71.0" y2="61.0" stroke="#177d83" stroke-width="1.2"/><line x1="68.60287230697898" y1="65.38791280945186" x2="71.0" y2="61.0" stroke="#177d83" stroke-width="1.2"/><rect x="66.0" y="67.0" width="10" height="12" rx="3" fill="#ffffff" stroke="#ffffff"/><text x="71.0" y="76.0" text-anchor="middle" font-size="7.5" font-family="Microsoft YaHei,Arial,sans-serif" fill="#17334f">5</text><line x1="249.63780000000003" y1="85.0" x2="249.63780000000003" y2="61.0" stroke="#177d83" stroke-width="1.2"/><line x1="252.03492769302105" y1="65.38791280945186" x2="249.63780000000003" y2="61.0" stroke="#177d83" stroke-width="1.2"/><line x1="247.240672306979" y1="65.38791280945186" x2="249.63780000000003" y2="61.0" stroke="#177d83" stroke-width="1.2"/><rect x="244.63780000000003" y="67.0" width="10" height="12" rx="3" fill="#ffffff" stroke="#ffffff"/><text x="249.63780000000003" y="76.0" text-anchor="middle" font-size="7.5" font-family="Microsoft YaHei,Arial,sans-serif" fill="#17334f">6</text><rect x="0.0" y="8.0" width="142" height="53" rx="3" fill="#edf4f8" stroke="#afc3d2"/><text x="71.0" y="37.755" text-anchor="middle" font-size="9.3" font-family="Microsoft YaHei,Arial,sans-serif" fill="#17334f" font-weight="700">未确认草稿</text><rect x="178.63780000000003" y="8.0" width="142" height="53" rx="3" fill="#edf4f8" stroke="#afc3d2"/><text x="249.63780000000003" y="37.755" text-anchor="middle" font-size="9.3" font-family="Microsoft YaHei,Arial,sans-serif" fill="#17334f" font-weight="700">已确认 / 地面未变</text><rect x="357.27560000000005" y="8.0" width="142" height="53" rx="3" fill="#edf4f8" stroke="#afc3d2"/><text x="428.27560000000005" y="37.755" text-anchor="middle" font-size="9.3" font-family="Microsoft YaHei,Arial,sans-serif" fill="#17334f" font-weight="700">计算结果有效</text><rect x="0.0" y="85.0" width="142" height="53" rx="3" fill="#edf4f8" stroke="#afc3d2"/><text x="71.0" y="114.755" text-anchor="middle" font-size="9.3" font-family="Microsoft YaHei,Arial,sans-serif" fill="#17334f" font-weight="700">地面已变</text><rect x="178.63780000000003" y="85.0" width="142" height="53" rx="3" fill="#edf4f8" stroke="#afc3d2"/><text x="249.63780000000003" y="114.755" text-anchor="middle" font-size="9.3" font-family="Microsoft YaHei,Arial,sans-serif" fill="#17334f" font-weight="700">输入已改</text><text x="5.0" y="165.0" text-anchor="start" font-size="7.8" font-family="Microsoft YaHei,Arial,sans-serif" fill="#17334f">1  确认</text><text x="171.42520000000002" y="165.0" text-anchor="start" font-size="7.8" font-family="Microsoft YaHei,Arial,sans-serif" fill="#17334f">2  计算</text><text x="337.85040000000004" y="165.0" text-anchor="start" font-size="7.8" font-family="Microsoft YaHei,Arial,sans-serif" fill="#17334f">3  目标变化</text><text x="5.0" y="177.0" text-anchor="start" font-size="7.8" font-family="Microsoft YaHei,Arial,sans-serif" fill="#17334f">4  编辑</text><text x="171.42520000000002" y="177.0" text-anchor="start" font-size="7.8" font-family="Microsoft YaHei,Arial,sans-serif" fill="#17334f">5  读取目标</text><text x="337.85040000000004" y="177.0" text-anchor="start" font-size="7.8" font-family="Microsoft YaHei,Arial,sans-serif" fill="#17334f">6  重新确认</text></svg>